<?xml version="1.0" encoding="UTF-8" standalone="no"?>
<!-- Generator: Adobe Illustrator 19.2.0, SVG Export Plug-In . SVG Version: 6.00 Build 0)  -->

<svg
   xmlns:dc="http://purl.org/dc/elements/1.1/"
   xmlns:cc="http://creativecommons.org/ns#"
   xmlns:rdf="http://www.w3.org/1999/02/22-rdf-syntax-ns#"
   xmlns:svg="http://www.w3.org/2000/svg"
   xmlns="http://www.w3.org/2000/svg"
   xmlns:sodipodi="http://sodipodi.sourceforge.net/DTD/sodipodi-0.dtd"
   xmlns:inkscape="http://www.inkscape.org/namespaces/inkscape"
   version="1.1"
   id="Layer_1"
   x="0px"
   y="0px"
   viewBox="0 0 202 202"
   style="enable-background:new 0 0 202 202;"
   xml:space="preserve"
   inkscape:version="0.91 r13725"
   sodipodi:docname="landingIcons_learn.svg"><metadata
   id="metadata4236"><rdf:RDF><cc:Work
       rdf:about=""><dc:format>image/svg+xml</dc:format><dc:type
         rdf:resource="http://purl.org/dc/dcmitype/StillImage" /><dc:title></dc:title></cc:Work></rdf:RDF></metadata><defs
   id="defs4234">
			
			
		<clipPath
   clipPathUnits="userSpaceOnUse"
   id="clipPath4286"><path
     inkscape:connector-curvature="0"
     style="fill:#ffff00;stroke:none"
     id="path4288"
     d="m -118.62616,-6.8165083 c 51.247952,0 92.8803,41.6323483 92.8803,92.8802903 0,51.247948 -41.632348,92.880288 -92.8803,92.880288 -51.24794,0 -92.88028,-41.63234 -92.88028,-92.880288 0,-51.247942 41.73801,-92.8802903 92.88028,-92.8802903 m 0,-12.4685717 c -58.11622,0 -105.34886,47.126973 -105.34886,105.348862 0,58.221898 47.12697,105.348868 105.34886,105.348868 58.221899,0 105.348873,-47.12697 105.348873,-105.348868 0,-58.221889 -47.126974,-105.348862 -105.348873,-105.348862 l 0,0 z"
     class="st2" /></clipPath></defs><sodipodi:namedview
   pagecolor="#ffffff"
   bordercolor="#666666"
   borderopacity="1"
   objecttolerance="10"
   gridtolerance="10"
   guidetolerance="10"
   inkscape:pageopacity="0"
   inkscape:pageshadow="2"
   inkscape:window-width="1366"
   inkscape:window-height="706"
   id="namedview4232"
   showgrid="false"
   inkscape:zoom="1.8587807"
   inkscape:cx="104.93862"
   inkscape:cy="109.88636"
   inkscape:window-x="-8"
   inkscape:window-y="-8"
   inkscape:window-maximized="1"
   inkscape:current-layer="g4212" />
<style
   type="text/css"
   id="style4137">
	.st0{fill:#ABBF7B;}
	.st1{fill:#C9E091;}
	.st2{fill:#006400;}
</style>
<g
   id="Layer_1_1_">
</g>
<g
   id="Layer_3">
</g>
<g
   id="Layer_2">
	<g
   id="g4142">
		
		
		
		
	<path
   style="opacity:1;fill:#ffd5d5;fill-opacity:0;fill-rule:evenodd;stroke:none;stroke-width:4.5;stroke-linecap:round;stroke-linejoin:round;stroke-miterlimit:4;stroke-dasharray:none;stroke-dashoffset:0;stroke-opacity:1"
   id="path4356"
   sodipodi:type="arc"
   sodipodi:cx="255.81285"
   sodipodi:cy="57.281475"
   sodipodi:rx="32.010231"
   sodipodi:ry="26.361366"
   sodipodi:start="6.1647473"
   sodipodi:end="4.1523987"
   d="m 287.59883,54.166582 a 32.010231,26.361366 0 0 1 -23.38299,28.55175 32.010231,26.361366 0 0 1 -37.72432,-14.861168 32.010231,26.361366 0 0 1 12.3182,-32.910627 l 17.00313,22.334938 z" /><g
   id="g4360"><path
     sodipodi:open="true"
     d="M 49.230195,16.651188 A 99.199997,99.199997 0 0 1 185.49651,49.223085 99.199997,99.199997 0 0 1 153.28366,185.57472 99.199997,99.199997 0 0 1 16.847649,153.72116 99.199997,99.199997 0 0 1 48.341712,17.20171"
     sodipodi:end="4.1524001"
     sodipodi:start="4.1629366"
     sodipodi:ry="99.199997"
     sodipodi:rx="99.199997"
     sodipodi:cy="101.25"
     sodipodi:cx="101.03445"
     sodipodi:type="arc"
     id="path4358"
     style="opacity:1;fill:#ffffff;fill-opacity:0;fill-rule:evenodd;stroke:none;stroke-width:4.5;stroke-linecap:round;stroke-linejoin:round;stroke-miterlimit:4;stroke-dasharray:none;stroke-dashoffset:0;stroke-opacity:1" /><path
     style="fill:#7b6c45;fill-opacity:1"
     inkscape:connector-curvature="0"
     id="path4222"
     d="m 101.03444,13.300005 c 48.50001,0 88.00001,39.499995 88.00001,87.999995 0,48.5 -39.5,88 -88.00001,88 -48.49999,0 -87.99999,-39.5 -87.99999,-88 0,-48.5 39.5,-87.999995 87.99999,-87.999995 m 0,-11.799999 c -55.09999,0 -99.8,44.699994 -99.8,99.799994 0,55.1 44.70001,99.7 99.8,99.7 55.10001,0 99.80001,-44.7 99.80001,-99.8 0,-55.1 -44.7,-99.699994 -99.80001,-99.699994 l 0,0 z"
     class="st2" /><g
     transform="translate(219.81676,-110.80101)"
     id="g4212"
     style="fill:#606060;fill-opacity:1">
			<path
   style="fill:#7b6c45;fill-opacity:1"
   inkscape:connector-curvature="0"
   id="path4214"
   d="m -37.66773,204.76068 c -2.672792,-0.55299 -5.437749,-1.19814 -8.479202,-1.8433 0.09216,-2.21197 0.09216,-3.87094 0.184331,-6.26724 -26.082762,-7.18889 -52.073359,-14.65427 -77.971769,-8.4792 -16.40542,-16.9584 -39.26534,-24.79538 -62.76747,-31.98427 -1.01382,1.19815 -1.93254,2.58356 -2.94636,3.78171 20.27636,6.91239 40.73704,12.81097 56.31296,26.54359 2.1198,1.8433 3.68661,5.34558 3.13362,7.37322 -5.89857,21.84316 -12.25798,43.50199 -18.89387,66.2668 -16.95841,-14.10128 -37.51125,-20.82934 -58.0641,-27.92607 1.19815,6.35941 2.94929,12.44231 5.34558,18.24872 4.33177,1.56681 8.66353,3.13362 12.9953,4.79259 12.16581,4.60826 23.40997,10.50684 32.53433,19.17037 2.67279,2.48846 9.95384,4.88476 13.27179,4.05527 15.02294,-3.41011 30.59887,-0.73732 46.174778,2.21197 11.428489,2.21196 22.580483,5.62208 33.916807,8.4792 0.368661,-0.2765 0.645157,-0.46083 0.921652,-0.73732 8.202706,-27.8339 16.221082,-55.75997 24.331623,-83.68604 z m -102.8564,57.69544 c 0.36867,-1.93547 0.553,-3.41011 1.01382,-4.88476 5.71425,-19.90769 11.61282,-39.63105 16.95841,-59.6309 1.10599,-4.23961 3.96311,-5.99074 9.12436,-6.54374 11.79714,-1.19814 23.502121,-0.64515 38.80155,2.85713 6.820228,1.56681 13.824785,3.13361 21.658831,4.97692 -6.912393,23.96296 -13.640455,47.37293 -20.460683,71.0594 -22.119657,-4.70043 -44.331458,-10.96767 -67.096288,-7.83405 z"
   class="st2"
   sodipodi:nodetypes="cccccccccccccccccccccccccc" />
			<path
   style="fill:#606060;fill-opacity:1"
   inkscape:connector-curvature="0"
   id="path4216"
   d="m -208.54207,215.63618 c 0,2.48846 0.0922,5.06909 0.2765,7.46539 5.99074,-20.73718 11.88931,-41.29003 17.97222,-62.39587 -11.42849,15.39159 -18.24872,34.37763 -18.24872,54.93048 z"
   class="st2" />
			<path
   style="fill:#b6a57d;fill-opacity:1"
   inkscape:connector-curvature="0"
   id="path4218"
   d="m -130.10945,193.97735 c 0.55299,-2.02763 -1.01382,-5.52991 -3.13362,-7.37322 -15.57593,-13.73262 -36.03661,-19.63119 -56.40513,-26.63575 -0.18433,0.27649 -0.36866,0.55299 -0.64515,0.82949 -13.95693,17.52673 -19.8884,38.06463 -17.97222,62.39586 0.27649,3.04145 0.64515,6.08291 1.19814,9.03219 20.55285,7.09673 41.1057,13.82479 58.0641,27.92607 6.54373,-22.67265 12.9953,-44.33148 18.89388,-66.17464 z"
   class="st1"
   sodipodi:nodetypes="cccccccc" />
			<path
   style="fill:#b6a57d;fill-opacity:1"
   inkscape:connector-curvature="0"
   id="path4220"
   d="m -52.967159,199.32293 c -7.834046,-1.8433 -14.838603,-3.41011 -21.658831,-4.97692 -15.299429,-3.50228 -27.00441,-4.05527 -38.80155,-2.85712 -5.16125,0.55299 -8.01837,2.30413 -9.12436,6.54373 -5.43775,19.90769 -11.33633,39.72322 -16.95841,59.63091 -0.36866,1.38248 -0.64515,2.85712 -1.01382,4.88476 22.85699,-3.13362 44.976631,3.13361 67.096288,7.92621 6.820228,-23.77863 13.54829,-47.09644 20.460683,-71.15157 z"
   class="st1" />
		</g><g
     style="fill:#7b6c45;fill-opacity:1"
     transform="matrix(0.92165236,0,0,0.92165236,-112.41109,154.19159)"
     id="g4224">
			<path
   style="fill:#7b6c45;fill-opacity:1"
   inkscape:connector-curvature="0"
   id="path4226"
   d="m 232.41446,-44.596009 c 5.5,0.8 7.00001,-1.9 7.60001,-4.4 0.5,-2 0.7,-4.1 0.9,-6.1 0.2,-2.1 0.4,-4 0.9,-6.1 1.70001,-6.6 7.00002,-8.7 13.60003,-7.8 l 1.6,0.2 -1,4 -1.4,-0.2 c -4.60001,-0.7 -6.70001,1.4 -7.70002,5.3 -0.4,1.7 -0.6,3.4 -0.8,5.2 -0.1,1.8 -0.4,3.6 -0.9,5.5 -1.1,4.6 -3.90001,6.6 -7.60002,7 l 0,0.1 c 3.30001,1.3 4.80001,4 3.60001,8.6 -0.5,1.9 -1.2,3.7 -1.9,5.4 -0.80001,1.8 -1.40001,3.4 -1.90001,5.1 -1,4 0.2,6.5 4.50001,7.1 l 1.40001,0.2 -1.00001,3.9 -1.6,-0.2 c -6.40001,-0.9 -10.60002,-4.2 -8.70002,-11.5 0.50001,-1.9 1.30001,-3.9 2.10001,-5.8 0.8,-1.9 1.6,-3.8 2.1,-5.7 0.6,-2.2 0.6,-5.4 -4.90001,-6.2 l 1.10001,-3.6 z"
   class="st2" />
			<path
   style="fill:#7b6c45;fill-opacity:1"
   inkscape:connector-curvature="0"
   id="path4228"
   d="m 277.31454,-34.296009 c -5.50001,-0.8 -7.10001,2.2 -7.60001,4.4 -0.50001,1.9 -0.70001,3.9 -0.90001,5.9 -0.2,2 -0.4,4 -0.9,6 -1.9,7.3 -7.40001,9.0999996 -13.70002,8.2 l -1.60001,-0.2 1,-4 1.30001,0.2 c 4.40001,0.6 6.80001,-1.3 7.80001,-5.4 0.40001,-1.7 0.60001,-3.4 0.80001,-5.2 0.1,-1.8 0.3,-3.6 0.8,-5.5 1.2,-4.6 4,-6.7 7.60001,-7 l 0,-0.1 c -3.20001,-1.4 -4.80001,-4 -3.60001,-8.6 0.5,-1.9 1.20001,-3.6 2.00001,-5.4 0.7,-1.7 1.4,-3.4 1.8,-5 1,-3.9 -0.1,-6.3 -4.50001,-7.1 l -1.4,-0.2 1,-4 1.5,0.2 c 6.60002,0.9 10.60002,4.4 8.90002,11 -0.5,2 -1.3,3.9 -2.1,5.9 -0.8,2 -1.6,3.9 -2.20001,5.9 -0.6,2.5 -0.6,5.4 4.90001,6.2 l -0.9,3.8 z"
   class="st2" />
		</g></g></g>
</g>

</svg>