<?xml version="1.0" encoding="UTF-8" standalone="no"?>
<!-- Generator: Adobe Illustrator 19.2.0, SVG Export Plug-In . SVG Version: 6.00 Build 0)  -->

<svg
   xmlns:dc="http://purl.org/dc/elements/1.1/"
   xmlns:cc="http://creativecommons.org/ns#"
   xmlns:rdf="http://www.w3.org/1999/02/22-rdf-syntax-ns#"
   xmlns:svg="http://www.w3.org/2000/svg"
   xmlns="http://www.w3.org/2000/svg"
   xmlns:sodipodi="http://sodipodi.sourceforge.net/DTD/sodipodi-0.dtd"
   xmlns:inkscape="http://www.inkscape.org/namespaces/inkscape"
   version="1.1"
   id="Layer_1"
   x="0px"
   y="0px"
   viewBox="0 0 202 202"
   style="enable-background:new 0 0 202 202;"
   xml:space="preserve"
   inkscape:version="0.91 r13725"
   sodipodi:docname="landingIcons_nonprofits.svg"><metadata
   id="metadata6418"><rdf:RDF><cc:Work
       rdf:about=""><dc:format>image/svg+xml</dc:format><dc:type
         rdf:resource="http://purl.org/dc/dcmitype/StillImage" /></cc:Work></rdf:RDF></metadata><defs
   id="defs6416" /><sodipodi:namedview
   pagecolor="#ffffff"
   bordercolor="#666666"
   borderopacity="1"
   objecttolerance="10"
   gridtolerance="10"
   guidetolerance="10"
   inkscape:pageopacity="0"
   inkscape:pageshadow="2"
   inkscape:window-width="1366"
   inkscape:window-height="706"
   id="namedview6414"
   showgrid="false"
   inkscape:zoom="1.596194"
   inkscape:cx="170.96642"
   inkscape:cy="141.12512"
   inkscape:window-x="-8"
   inkscape:window-y="-8"
   inkscape:window-maximized="1"
   inkscape:current-layer="g6340" />
<style
   type="text/css"
   id="style6265">
	.st0{fill:#ABBF7B;}
	.st1{fill:#C9E091;}
	.st2{fill:#006400;}
	.st3{fill:none;}
	.st4{fill:#649542;}
</style>
<g
   id="Layer_1_1_">
</g>
<g
   id="Layer_3">
</g>
<g
   id="Layer_2"
   style="stroke:none;stroke-opacity:1;fill:#7b6c45;fill-opacity:1">
	<g
   id="g6270"
   style="stroke:none;stroke-opacity:1;fill:#7b6c45;fill-opacity:1">
		<g
   id="g6272"
   style="stroke:none;stroke-opacity:1;fill:#7b6c45;fill-opacity:1">
			
			<path
   class="st2"
   d="M101,12.8c48.6,0,88.2,39.6,88.2,88.2s-39.6,88.2-88.2,88.2S12.8,149.6,12.8,101S52.4,12.8,101,12.8 M101,1     C45.8,1,1,45.8,1,101s44.8,100,100,100s100-44.8,100-100S156.2,1,101,1L101,1z"
   id="path6338"
   style="fill:#7b6c45;fill-opacity:1;stroke:none;stroke-opacity:1" />
		</g>
		<g
   id="g6340"
   style="stroke:none;stroke-opacity:1;fill:#7b6c45;fill-opacity:1">
			
			<path
   class="st3"
   d="M113.2,130.1c-1.2,0.3-2.4,0.6-3.6,0.9l-0.5,1.8C110.3,132,111.7,131.1,113.2,130.1z"
   id="path6344"
   style="stroke:none;stroke-opacity:1;fill:#7b6c45;fill-opacity:1" />
			<path
   class="st3"
   d="M82.4,121.5c0-1.8,0-3.6,0-5.3l-1.7-0.5C81.2,117.6,81.8,119.6,82.4,121.5z"
   id="path6346"
   style="stroke:none;stroke-opacity:1;fill:#7b6c45;fill-opacity:1" />
			<path
   class="st3"
   d="M63.4,111.3L63.4,111.3c0,0-1.5-0.4-2.9-0.4h-0.2c-0.7,0-2.1,0.2-3.5,0.5c2.7,2.2,4.7,4.6,6.1,6.8     c1,0.7,1.7,1.6,2.1,2.2l0.1,0.1c0.4,0.5,2.3,3.2,4.4,6.4c-1-3.9-2.2-8.2-3.1-11.8V115v-0.1c-0.1-0.6-0.3-1.7-0.4-3L63.4,111.3     L63.4,111.3z"
   id="path6348"
   style="stroke:none;stroke-opacity:1;fill:#7b6c45;fill-opacity:1" />
			<path
   class="st3"
   d="M109.3,103v-0.4c-0.9-0.3-1.9-0.6-2.9-0.9c-0.2,0.5-0.3,0.9-0.4,1.3H109.3z"
   id="path6350"
   style="stroke:none;stroke-opacity:1;fill:#7b6c45;fill-opacity:1" />
			
			
			<path
   class="st4"
   d="M31.1,109.9c2.4,3.7,8,7,9.9,7.8s7.1,2.5,12.4,7.7c0.1,0.1,0.3,0.3,0.4,0.4c-0.5-1.5-0.7-3.1-0.3-4.5     c0.3-1.4,1.1-2.5,2.4-3.2c1-0.6,1.9-0.9,2.9-1c-1.7-2.1-4.1-4.2-7.3-6.1l2.2-1.8c0,0,4.7-1.1,6.7-1.1c0.1,0,0.2,0,0.2,0     c1.9,0,3.7,0.5,3.7,0.5l1.9,0.5c0.2-1.1,0.5-2.3,1.1-3.2c0.8-1.2,1.9-1.9,3.3-2.1c0.5-0.1,1-0.1,1.5-0.1c5,0,6.4,4.7,6.8,6.2     c0.1,0.4,0.4,1.4,0.9,2.9l2.7,0.7c0-2.7,0-4.8,0-5.2c0-0.5-0.1-1.8,0.2-3.3c-6.2-2.1-14.1-4.6-15.6-5.1c-2.6-0.8,0.3-2.7,0.3-2.7     l25.9-0.3c-1.7-1.5-3.1-4-1.9-7.4c0.1-0.4,0.3-0.8,0.5-1.1c-2.7,0-19.5,0.2-24.3,0.2c-0.5,0-0.8,0-1.1,0c-2.7,0-0.4-1.8-0.4-1.8     s5.6-1.7,11.4-3.5c-1.1-0.5-2.7-1.4-3.5-3.1c-0.7-1.3-0.7-2.8-0.1-4.2c0-0.1,0.1-0.2,0.1-0.3c-5.4,1.4-10.7,2.8-11.5,3     c-0.2,0-0.4,0.1-0.6,0.1c-1,0-0.8-0.9-0.8-0.9s15.8-11,16.9-11.8c1.1-0.9,3.5-2.6,1.7-5.7c-0.5-0.8-1.3-1.1-2.3-1.1     c-2.7,0-6.4,2.4-6.4,2.4s-13.5,8.2-14.8,8.9c-1.1,0.6-1.8,0.7-2.1,0.7H54L43.5,72c-14.2,2.4-17.9,9.3-17.9,9.3L14,81.2     c-1.9,7.9-2.6,16-2.3,24l15.7-0.9C27.4,104.4,28.7,106.2,31.1,109.9z"
   id="path6356"
   style="stroke:none;stroke-opacity:1;fill:#d0c4aa;fill-opacity:1" />
			<path
   class="st2"
   d="M92.1,85.5c-0.8,0-7.2,0.1-13.4,0.1c5.3-1.7,10.7-3.3,11.7-3.6c4.1-1.2,6.1-3.5,6.2-6.7     c-7.1,7.8-15.2,8.3-17,8.3c-0.2,0-0.3,0-0.3,0H79l-0.3-0.1c-0.2-0.1-0.6-0.2-1.2-0.4c-5.8,1.8-11.4,3.5-11.4,3.5     s-2.3,1.8,0.4,1.8c0.2,0,0.6,0,1.1,0c4.8,0,21.6-0.1,24.3-0.2c0.7-1.3,1.7-2.2,3-2.7c-0.7-0.1-1.3-0.1-1.9-0.1     C92.5,85.5,92.2,85.5,92.1,85.5z"
   id="path6358"
   style="stroke:none;stroke-opacity:1;fill:#7b6c45;fill-opacity:1" />
			<path
   class="st2"
   d="M80.6,115.8l1.7,0.5c0-1,0-2,0-2.9l-2.7-0.7C79.9,113.6,80.3,114.6,80.6,115.8z"
   id="path6360"
   style="stroke:none;stroke-opacity:1;fill:#7b6c45;fill-opacity:1" />
			<path
   class="st2"
   d="M43.5,72L54,71.2c0,0,0,0,0.1,0c0.2,0,1-0.1,2.1-0.7c1.3-0.8,14.8-8.9,14.8-8.9s3.7-2.4,6.4-2.4     c1,0,1.8,0.3,2.3,1.1c1.8,3.1-0.6,4.9-1.7,5.7c-1.1,0.9-16.9,11.6-16.9,11.6s-0.2,0.9,0.8,0.9c0.2,0,0.3,0,0.6-0.1     c0.8-0.2,6.1-1.6,11.5-3c0.9-2,1.9-2.7,3.2-3.3c0.4-0.2,0.8-0.4,1.4-0.8c-1.7,0.5-3.5,0.9-5.2,1.4c3.2-2.2,5.9-4.1,6.4-4.4     l0.1-0.1c4.4-3.4,3.7-6.9,2.3-9.3c-0.9-1.6-2.6-2.5-4.7-2.5c-3.3,0-7.1,2.3-7.9,2.8c-4.7,2.8-13.7,8.3-14.7,8.9     c-0.3,0.2-0.5,0.3-0.7,0.3h-0.1h-0.2l-10.5,0.8h-0.1h-0.1c-11.5,2-16.8,6.8-18.8,9.3l-9.5-0.1c-0.2,0.9-0.5,1.9-0.7,2.8l11.6,0.1     C25.6,81.3,29.3,74.4,43.5,72z"
   id="path6362"
   style="stroke:none;stroke-opacity:1;fill:#7b6c45;fill-opacity:1" />
			<path
   class="st2"
   d="M66.9,99.8c1.5,0.4,9.3,3,15.6,5.1c0.2-0.9,0.4-1.8,0.9-2.7c-2.3-0.8-4.9-1.6-7.3-2.4l9.4-0.1     c1-0.7,2.2-1.1,3.5-1.1l0,0c0.1,0,0.3,0,0.5,0c1.4,0.1,2.5,0.4,3.3,0.9l0.7-2.5c-0.1-0.1-0.2-0.1-0.3-0.2l-25.9,0.3     C67.3,97.1,64.3,99,66.9,99.8z"
   id="path6364"
   style="stroke:none;stroke-opacity:1;fill:#7b6c45;fill-opacity:1" />
			<path
   class="st2"
   d="M60.5,108.1c-0.1,0-0.2,0-0.2,0c-2,0.1-6.7,1.1-6.7,1.1l-2.2,1.8c3.2,1.9,5.6,4,7.3,6.1     c0.2,0,0.5-0.1,0.7-0.1c1.5,0,2.6,0.5,3.6,1.2c-1.4-2.3-3.4-4.6-6.1-6.8c1.4-0.3,2.8-0.5,3.5-0.5h0.2c1.4,0,2.9,0.4,2.9,0.4l0,0     l0,0L66,112c0-0.9,0-1.9,0.1-2.9l-1.9-0.5C64.1,108.6,62.3,108.1,60.5,108.1z"
   id="path6366"
   style="stroke:none;stroke-opacity:1;fill:#7b6c45;fill-opacity:1" />
			<path
   class="st2"
   d="M56.1,130.7c-0.5-0.8-1.6-2.7-2.3-4.9c-0.1-0.1-0.3-0.3-0.4-0.4c-5.3-5.2-10.5-6.9-12.4-7.7     c-1.9-0.8-7.5-4.1-9.9-7.8c-2.4-3.6-3.7-5.5-3.7-5.5l-15.7,0.9c0,0.9,0.1,1.9,0.2,2.8l14.1-0.8c0.6,0.9,1.5,2.3,2.7,4.1     c2.8,4.4,9.2,8,11.2,8.8c0.2,0.1,0.4,0.2,0.7,0.3c2.1,0.8,6.4,2.5,10.8,6.9c2.4,2.4,3,3.6,3.5,4.5c0.7,1.4,1.4,2.5,3.6,3.3     c0.1,0.1,0.3,0.1,0.4,0.1C57.8,133.6,56.8,132,56.1,130.7z"
   id="path6368"
   style="stroke:none;stroke-opacity:1;fill:#7b6c45;fill-opacity:1" />
			<path
   class="st1"
   d="M99.2,48.3c-3.7,2.4-7,8-7.8,9.9c-0.8,1.9-2.5,7.1-7.7,12.4s-6.1,3.2-7.3,6.2c-1.2,2.9,3,4,3,4s0.1,0,0.2,0     c1.5,0,11.5-0.5,18.5-12.2l1.8,2.2c0,0,1.1,4.7,1.1,6.7c0.1,2-0.5,3.9-0.5,3.9l-1,3.9c0.2,0,0.4,0.1,0.5,0.1l8.3,2.2     c0.5-1.7,0.9-2.9,1.1-3.4c0.2-0.8,0.6-1.1,0.9-1.1c0.8,0,1.8,1.4,1.8,1.4v4.1l8.6,2.3c0-3.5,0-6.3,0-7.2c0-1,0.3-1.3,0.6-1.3     c0.5,0,1.3,0.9,1.3,0.9s1.2,3.9,2.7,8.5c0.3,0,0.6,0.1,0.9,0.1h0.2c0.7,0,2.1-0.2,3.5-0.5c-9.9-8-9.6-17.9-9.6-18.4v-0.3l0.1-0.3     c0.5-1.9,2.3-5.2,5.7-5.2l0,0c0.7,0,1.4,0.1,2,0.4c2.2,0.9,2.9,2,3.6,3.3c0.5,0.9,1.1,2.1,3.5,4.5c2.9,2.8,5.7,4.5,7.9,5.6     c-2.1-3.5-4.2-7-4.6-7.6c-0.7-1.3-0.7-2.1-0.7-2.1L137,60.7c-2.4-14.2-9.3-17.9-9.3-17.9l0.2-25.5c-8.2-2.7-16.6-4.1-25-4.4     l1.7,31.7C104.6,44.7,102.8,45.9,99.2,48.3z"
   id="path6370"
   style="fill:#b6a57d;fill-opacity:1;stroke:none;stroke-opacity:1" />
			<path
   class="st1"
   d="M95.1,101.6c0.4,0.5,0.6,1,0.8,1.6l7.2-0.1c0.2-0.7,0.5-1.5,0.7-2.2c-3.4-1.1-6.3-2.1-7.8-2.6L95.1,101.6z"
   id="path6372"
   style="stroke:none;stroke-opacity:1;fill:#b6a57d;fill-opacity:1" />
			<path
   class="st2"
   d="M110.4,103c-0.4-0.1-0.7-0.2-1.1-0.4v0.4H110.4z"
   id="path6374"
   style="stroke:none;stroke-opacity:1;fill:#7b6c45;fill-opacity:1" />
			<path
   class="st2"
   d="M73.9,75.4c0,0.1-0.1,0.2-0.1,0.3c-0.6,1.5-0.5,2.9,0.1,4.2c0.8,1.7,2.4,2.6,3.5,3.1c0.6,0.2,1,0.4,1.2,0.4     l0.3,0.1h0.3c0,0,0.1,0,0.3,0c1.8,0,9.9-0.5,17-8.3c0.4-0.4,0.7-0.8,1.1-1.2c0.3,1.4,0.5,2.8,0.5,3.5c0,1.2-0.3,2.7-0.4,3.1l0,0     l0,0l-1.2,4.5c0.3,0,0.7-0.1,1-0.1c0.8,0,1.4,0.1,1.8,0.2l1-3.9c0,0,0.6-2,0.5-3.9c-0.1-2-1.1-6.7-1.1-6.7L98,68.5     c-6.9,11.8-16.9,12.2-18.5,12.2c-0.1,0-0.2,0-0.2,0s-4.2-1.1-3-4s2-0.9,7.3-6.2c5.2-5.3,6.9-10.5,7.7-12.4     c0.8-1.9,4.1-7.5,7.8-9.9c3.6-2.4,5.5-3.7,5.5-3.7L102.9,13c-0.9,0-1.9-0.1-2.8-0.1l1.7,30.3c-0.9,0.6-2.3,1.5-4.1,2.7     c-4.4,2.8-8,9.2-8.8,11.2c-0.1,0.2-0.2,0.4-0.3,0.7c-0.8,2.1-2.5,6.4-6.9,10.8c-1.4,1.4-2.4,2.2-3.2,2.7c-0.5,0.4-1,0.6-1.4,0.8     C75.8,72.8,74.8,73.4,73.9,75.4z"
   id="path6376"
   style="stroke:none;stroke-opacity:1;fill:#7b6c45;fill-opacity:1" />
			<path
   class="st2"
   d="M92.8,99.5c0.9,0.5,1.5,1,1.9,1.5c0.2,0.2,0.3,0.4,0.4,0.5l0.9-3.4c-0.5-0.2-0.9-0.3-1-0.3h-0.1h-0.1     c-0.5-0.2-0.9-0.5-1.4-0.8L92.8,99.5z"
   id="path6378"
   style="stroke:none;stroke-opacity:1;fill:#7b6c45;fill-opacity:1" />
			<path
   class="st2"
   d="M137,60.7l0.8,10.5c0,0-0.1,0.8,0.7,2.1c0.4,0.6,2.5,4.2,4.6,7.6c1.2,0.6,2.2,1,2.9,1.2     c0.3,0.1,0.5,0.2,0.7,0.3c0.2,0.1,0.5,0.2,0.9,0.4c-2.8-4.6-6.2-10.2-6.6-11c-0.2-0.3-0.3-0.6-0.3-0.7l0,0v-0.2l-0.8-10.5v-0.1     v-0.1c-2-11.5-6.8-16.8-9.3-18.8l0.2-23.1c-0.9-0.3-1.9-0.7-2.8-1l-0.2,25.5C127.7,42.8,134.6,46.6,137,60.7z"
   id="path6380"
   style="stroke:none;stroke-opacity:1;fill:#7b6c45;fill-opacity:1" />
			<path
   class="st2"
   d="M121.1,82.3c-0.3,0-0.6,0.3-0.6,1.3c0,0.8,0,3.7,0,7.2l2.5,0.6l0,0l0,0c0,0,0.9,0.2,2,0.4     c-1.4-4.6-2.7-8.5-2.7-8.5S121.7,82.3,121.1,82.3z"
   id="path6382"
   style="stroke:none;stroke-opacity:1;fill:#7b6c45;fill-opacity:1" />
			<path
   class="st2"
   d="M110.2,83.1c-0.4,0-0.7,0.3-0.9,1.1c-0.1,0.5-0.5,1.8-1.1,3.4l3.8,1v-4.1C111.9,84.5,111,83.1,110.2,83.1z"
   id="path6384"
   style="stroke:none;stroke-opacity:1;fill:#7b6c45;fill-opacity:1" />
			<path
   class="st2"
   d="M106,103c0.1-0.4,0.3-0.9,0.4-1.3c-0.9-0.3-1.8-0.6-2.7-0.9c-0.3,0.8-0.5,1.5-0.7,2.2L106,103z"
   id="path6386"
   style="stroke:none;stroke-opacity:1;fill:#7b6c45;fill-opacity:1" />
			<path
   class="st1"
   d="M107.8,117.2c-2.1,0-4.1,0-6,0c-0.2,0.7-0.4,1.3-0.7,2C103.1,118.6,105.5,117.9,107.8,117.2z"
   id="path6388"
   style="stroke:none;stroke-opacity:1;fill:#7b6c45;fill-opacity:1" />
			<path
   class="st1"
   d="M106.7,169.1c3.7-2.4,7-8,7.8-9.9s2.5-7.1,7.7-12.4c5.2-5.3,6.1-3.2,7.3-6.2c0.8-1.9-0.7-3-1.8-3.6     c-3.3,2-7.8,4.7-10.6,6.4c-0.8,0.5-4.3,2.6-7.5,2.8c-0.6,0.8-1.1,1.6-1.7,2.6l-1.8-2.2c0,0-0.1-0.5-0.3-1.3     c-0.5-0.4-1-0.9-1.3-1.5c-1.2-2.1-1.9-5.2,1.2-8.3l1-3.7c-1.8,0.5-3.5,0.9-5.1,1.4h-0.1h-0.1c-0.2,0-2,0.4-4,0.4     c-0.3,0-0.6,0-0.8,0c-0.2,0.5-0.5,0.8-0.8,0.8c-0.6,0-1.2-0.7-1.6-1.1c-3.1-0.9-3.8-3-4-4.1c-0.6-3.3,0.7-5.8,3.7-7.4v-4.4h-0.1     c-2.2,0-5.2-0.4-7.1-2.5c-0.7-0.7-1.1-1.6-1.4-2.5c0.1,6.8,0.1,19.5,0.1,21.5c0,1-0.3,1.3-0.6,1.3c-0.5,0-1.3-0.9-1.3-0.9     s-6.6-21.3-7.3-23.5c-0.6-2-1.5-4.2-4.2-4.2c-0.3,0-0.6,0-1,0.1c-3.4,0.6-1.9,7.9-1.9,7.9s5.8,21.7,6.2,23.4     c0.3,1.2-0.3,1.4-0.6,1.4c-0.1,0-0.2,0-0.2,0s-10.7-15.8-11.6-16.9c-0.6-0.8-1.7-2.4-3.6-2.4c-0.6,0-1.4,0.2-2.2,0.7     c-3.1,1.8,1.3,8.7,1.3,8.7s8.2,13.5,8.9,14.8c0.7,1.3,0.7,2.1,0.7,2.1l0.8,10.5c2.4,14.2,9.3,17.9,9.3,17.9L78,187.2     c7.9,2,16,3,24.1,2.8l-0.9-17.3C101.2,172.8,103,171.5,106.7,169.1z"
   id="path6390"
   style="fill:#b6a57d;fill-opacity:1;stroke:none;stroke-opacity:1" />
			<path
   class="st1"
   d="M89.3,101.4c-0.1,0-0.2,0-0.3,0c-4.4,0-3.9,6.6-3.9,6.6s0,0.3,0,0.8c0.8-3.9,4-5.6,7.1-5.6     c0.1,0,0.2,0,0.3,0h0.3C92.2,102.3,91.1,101.5,89.3,101.4z"
   id="path6392"
   style="stroke:none;stroke-opacity:1;fill:#b6a57d;fill-opacity:1" />
			<path
   class="st2"
   d="M101.1,119.3c0.2-0.7,0.5-1.4,0.7-2c-1.1,0-2,0-2.9,0c-0.3,1-0.7,2-1,3C98.7,120,99.9,119.7,101.1,119.3z"
   id="path6394"
   style="stroke:none;stroke-opacity:1;fill:#7b6c45;fill-opacity:1" />
			<path
   class="st2"
   d="M95.6,134.4c0.3,0,0.6-0.2,0.8-0.8c-0.9-0.1-1.7-0.2-2.4-0.4C94.4,133.6,95.1,134.4,95.6,134.4z"
   id="path6396"
   style="stroke:none;stroke-opacity:1;fill:#7b6c45;fill-opacity:1" />
			<path
   class="st2"
   d="M107.8,148.9c0.5-0.9,1.1-1.8,1.7-2.6c-0.1,0-0.3,0-0.4,0c-1.3,0-2.4-0.4-3.4-1c0.2,0.8,0.3,1.3,0.3,1.3     L107.8,148.9z"
   id="path6398"
   style="stroke:none;stroke-opacity:1;fill:#7b6c45;fill-opacity:1" />
			<path
   class="st2"
   d="M127.6,137.1c1.1,0.6,2.6,1.7,1.8,3.6c-1.2,2.9-2,0.9-7.3,6.2c-5.2,5.3-6.9,10.5-7.7,12.4     c-0.8,1.9-4.1,7.5-7.8,9.9c-3.6,2.4-5.5,3.7-5.5,3.7l0.9,17.3c0.9,0,1.9,0,2.8-0.1l-0.9-15.7c0.9-0.6,2.3-1.5,4.1-2.7     c4.4-2.8,8-9.2,8.8-11.2c0.1-0.2,0.2-0.4,0.3-0.7c0.8-2.1,2.5-6.4,6.9-10.8c2.4-2.4,3.6-3,4.5-3.5c1.4-0.7,2.5-1.4,3.3-3.6     c0.6-1.5,0.5-2.9-0.1-4.2c-0.4-0.8-1-1.5-1.7-2C129.6,135.9,128.6,136.5,127.6,137.1z"
   id="path6400"
   style="stroke:none;stroke-opacity:1;fill:#7b6c45;fill-opacity:1" />
			<path
   class="st2"
   d="M68.8,156.7L68,146.2c0,0,0.1-0.8-0.7-2.1c-0.8-1.3-8.9-14.8-8.9-14.8s-4.4-6.9-1.3-8.7     c0.8-0.5,1.5-0.7,2.2-0.7c1.8,0,2.9,1.5,3.6,2.4c0.9,1.1,11.6,16.9,11.6,16.9s0.1,0,0.2,0c0.3,0,0.9-0.2,0.6-1.4     c-0.3-1.6-6.2-23.4-6.2-23.4s-1.5-7.3,1.9-7.9c0.4-0.1,0.7-0.1,1-0.1c2.6,0,3.6,2.2,4.2,4.2c0.7,2.3,7.3,23.5,7.3,23.5     s0.7,0.9,1.3,0.9c0.3,0,0.6-0.3,0.6-1.3c0-2-0.1-14.7-0.1-21.5c-0.2-0.7-0.3-1.4-0.2-2.2c0-0.5,0.1-0.9,0.2-1.3     c0-0.5,0-0.8,0-0.8s-0.6-6.6,3.9-6.6c0.1,0,0.2,0,0.3,0c1.9,0.1,2.9,0.9,3.6,1.8h3.1c-0.2-0.5-0.5-1-0.8-1.6     c-0.1-0.2-0.3-0.4-0.4-0.5c-0.4-0.5-1.1-1.1-1.9-1.5c-0.9-0.5-1.9-0.8-3.3-0.9c-0.2,0-0.3,0-0.5,0l0,0c-1.3,0-2.5,0.4-3.5,1.1     c-0.4,0.2-0.7,0.5-1,0.9c-0.5,0.5-0.8,1-1.1,1.6c-0.4,0.9-0.7,1.8-0.9,2.7c-0.3,1.5-0.2,2.8-0.2,3.3s0,2.5,0,5.2     c0,0.9,0,1.9,0,2.9c0,1.7,0,3.5,0,5.3c-0.6-2-1.2-4-1.8-5.7c-0.4-1.2-0.7-2.2-1-3.1c-0.4-1.4-0.8-2.5-0.9-2.9     c-0.5-1.5-1.9-6.2-6.8-6.2c-0.5,0-1,0-1.5,0.1c-1.3,0.2-2.5,1-3.3,2.1c-0.6,0.9-1,2-1.1,3.2c-0.1,1-0.2,2-0.1,2.9     c0.1,1.3,0.3,2.5,0.4,3v0.1v0.1c0.9,3.5,2.1,7.8,3.1,11.8c-2.2-3.2-4.1-5.9-4.4-6.4l-0.1-0.1c-0.4-0.5-1.1-1.4-2.1-2.2     c-0.9-0.7-2.1-1.2-3.6-1.2c-0.2,0-0.5,0-0.7,0.1c-1,0.1-1.9,0.4-2.9,1c-1.2,0.7-2,1.8-2.4,3.2c-0.3,1.4-0.1,3,0.3,4.5     c0.7,2.2,1.8,4.1,2.3,4.9c0.8,1.3,1.8,2.9,2.8,4.6c2.7,4.4,5.7,9.4,6.1,10.1c0.2,0.3,0.3,0.6,0.3,0.7l0,0v0.2l0.8,10.5v0.1v0.1     c2,11.5,6.8,16.8,9.3,18.8l-0.1,10.5c0.9,0.3,1.9,0.5,2.8,0.8l0.1-12.7C78.2,174.6,71.3,170.9,68.8,156.7z"
   id="path6402"
   style="stroke:none;stroke-opacity:1;fill:#7b6c45;fill-opacity:1" />
			<path
   class="st2"
   d="M96.1,120.8c0.1,0,0.3-0.1,0.4-0.1v-3.4c-1.1,0-1.8,0-2.1,0c-0.1,0-0.4,0-0.7,0v4.4     C94.5,121.4,95.2,121.1,96.1,120.8z"
   id="path6404"
   style="stroke:none;stroke-opacity:1;fill:#7b6c45;fill-opacity:1" />
			<path
   class="st2"
   d="M106.7,134.6l0.1-0.1c0.2-0.2,1.1-0.8,2.4-1.7l0.5-1.8c-1,0.3-2.1,0.6-3.1,0.8l-1,3.7     C105.9,135.2,106.3,134.9,106.7,134.6z"
   id="path6406"
   style="stroke:none;stroke-opacity:1;fill:#7b6c45;fill-opacity:1" />
			<path
   class="st0"
   d="M155.4,92.9c-2.4-3.7-8-7-9.9-7.8s-7.1-2.5-12.4-7.7c-5.3-5.2-3.2-6.1-6.2-7.3c-0.4-0.1-0.7-0.2-1-0.2     c-2.2,0-3,3.2-3,3.2s-0.5,11.2,12.2,18.7l-2.2,1.8c0,0-4.7,1.1-6.7,1.1c-0.1,0-0.2,0-0.2,0c-1.9,0-3.7-0.5-3.7-0.5L99,88.1     c0,0-0.7-0.2-1.5-0.2c-1.2,0-2.9,0.4-3.7,2.5c-1.3,3.5,2,4.9,2,4.9s21.1,7,23.7,7.7c2.6,0.8-0.3,2.7-0.3,2.7L92.4,106     c0,0-0.1,0-0.3,0c-0.9,0-4.2,0.3-4.5,4.4c-0.2,3.8,4.1,4.2,5.9,4.2c0.4,0,0.7,0,0.7,0s19.4-0.2,24.7-0.2c0.5,0,0.8,0,1.1,0     c2.7,0,0.4,1.8,0.4,1.8s-21.3,6.6-23.5,7.3c-2.3,0.7-4.7,1.8-4.1,5.2c0.3,1.8,2.5,2.2,4.5,2.2c1.8,0,3.4-0.3,3.4-0.3     s21.7-5.8,23.4-6.2c0.2,0,0.4-0.1,0.6-0.1c1,0,0.8,0.9,0.8,0.9s-15.8,10.7-16.9,11.6c-1.1,0.9-3.5,2.6-1.7,5.7     c0.5,0.8,1.3,1.1,2.3,1.1c2.7,0,6.4-2.4,6.4-2.4s13.5-8.2,14.8-8.9c1.1-0.6,1.8-0.7,2.1-0.7h0.1l10.5-0.8     c14.2-2.4,17.9-9.3,17.9-9.3l25.5,0.2c1.9-8.2,2.6-16.6,2.2-24.9l-29.6,1.6C159.1,98.4,157.8,96.6,155.4,92.9z"
   id="path6408"
   style="stroke:none;stroke-opacity:1;fill:#a78e5e;fill-opacity:1" />
			<path
   class="st2"
   d="M185.7,124.5c0.2-0.9,0.5-1.9,0.7-2.8l-25.5-0.2c0,0-3.7,6.9-17.9,9.3l-10.5,0.8c0,0,0,0-0.1,0     c-0.2,0-1,0.1-2.1,0.7c-1.3,0.8-14.8,8.9-14.8,8.9s-3.7,2.4-6.4,2.4c-1,0-1.8-0.3-2.3-1.1c-1.8-3.1,0.6-4.9,1.7-5.7     c1.1-0.9,16.9-11.6,16.9-11.6s0.2-0.9-0.8-0.9c-0.2,0-0.3,0-0.6,0.1c-1.6,0.3-23.4,6.2-23.4,6.2s-1.6,0.3-3.4,0.3     c-2,0-4.1-0.4-4.5-2.2c-0.6-3.4,1.8-4.5,4.1-5.2c2.3-0.7,23.5-7.3,23.5-7.3s2.3-1.8-0.4-1.8c-0.2,0-0.6,0-1.1,0     c-5.3,0-24.7,0.2-24.7,0.2s-0.3,0-0.7,0c-1.8,0-6.1-0.4-5.9-4.2c0.2-4.1,3.5-4.4,4.5-4.4c0.2,0,0.3,0,0.3,0l26.8-0.3     c0,0,2.9-1.9,0.3-2.7c-2.6-0.8-23.7-7.7-23.7-7.7s-3.2-1.4-2-4.9c0.7-2.1,2.4-2.5,3.7-2.5c0.9,0,1.5,0.2,1.5,0.2l23.3,6.1     c0,0,1.8,0.5,3.7,0.5c0.1,0,0.2,0,0.2,0c2-0.1,6.7-1.1,6.7-1.1l2.2-1.8c-12.8-7.5-12.2-18.7-12.2-18.7s0.9-3.2,3-3.2     c0.3,0,0.6,0.1,1,0.2c2.9,1.2,0.9,2,6.2,7.3c5.3,5.2,10.5,6.9,12.4,7.7c1.9,0.8,7.5,4.1,9.9,7.8c2.4,3.6,3.7,5.5,3.7,5.5     l29.6-1.6c-0.1-0.9-0.1-1.9-0.2-2.8l-28,1.5c-0.6-0.9-1.5-2.3-2.7-4.1c-2.5-3.9-7.7-7.1-10.3-8.4c-0.3-0.2-0.7-0.3-0.9-0.4     s-0.4-0.2-0.7-0.3c-0.7-0.3-1.7-0.7-2.9-1.2c-2.2-1.1-5.1-2.8-7.9-5.6c-2.4-2.4-3-3.6-3.5-4.5c-0.7-1.4-1.4-2.5-3.6-3.3     c-0.7-0.3-1.4-0.4-2-0.4l0,0c-3.4,0-5.2,3.3-5.7,5.2l-0.1,0.3v0.3c0,0.5-0.4,10.4,9.6,18.4c-1.4,0.3-2.8,0.5-3.5,0.5H126     c-0.3,0-0.6,0-0.9-0.1c-1.1-0.1-2-0.4-2-0.4l0,0l0,0l-2.5-0.6l-8.6-2.3l-3.8-1l-8.3-2.2c-0.1,0-0.3-0.1-0.5-0.1     c-0.4-0.1-1.1-0.2-1.8-0.2c-0.4,0-0.7,0-1,0.1c-0.6,0.1-1.2,0.2-1.7,0.5c-1.3,0.5-2.3,1.4-3,2.7c-0.2,0.4-0.4,0.7-0.5,1.1     c-1.2,3.4,0.2,5.9,1.9,7.4c0.1,0.1,0.2,0.1,0.3,0.2c0.5,0.3,0.9,0.6,1.4,0.8h0.1h0.1c0.1,0,0.4,0.1,1,0.3     c1.5,0.5,4.5,1.5,7.8,2.6c0.9,0.3,1.8,0.6,2.7,0.9c1,0.3,1.9,0.6,2.9,0.9c0.4,0.1,0.7,0.2,1.1,0.4h-1.1h-3.3h-3l-7.2,0.1H93h-0.3     c-0.1,0-0.2,0-0.3,0c-3.1,0-6.3,1.8-7.1,5.6c-0.1,0.4-0.2,0.9-0.2,1.3c0,0.8,0,1.5,0.2,2.2c0.3,0.9,0.7,1.8,1.4,2.5     c1.9,2,4.9,2.5,7.1,2.5h0.1c0.3,0,0.6,0,0.7,0c0.2,0,1,0,2.1,0c0.7,0,1.5,0,2.3,0c0.9,0,1.9,0,2.9,0c1.9,0,4,0,6,0     c-2.4,0.7-4.7,1.5-6.7,2.1c-1.3,0.4-2.4,0.7-3.3,1c-0.5,0.2-1,0.3-1.3,0.4c-0.2,0.1-0.3,0.1-0.4,0.1c-0.9,0.3-1.7,0.6-2.3,0.9     c-3,1.6-4.3,4-3.7,7.4c0.2,1.1,1,3.2,4,4.1c0.7,0.2,1.5,0.3,2.4,0.4c0.3,0,0.5,0,0.8,0c2,0,3.8-0.4,4-0.4h0.1h0.1     c1.6-0.4,3.3-0.9,5.1-1.4c1-0.3,2.1-0.6,3.1-0.8c1.2-0.3,2.4-0.6,3.6-0.9c-1.5,1-2.9,2-4,2.8c-1.2,0.8-2.1,1.5-2.4,1.7l-0.1,0.1     c-0.4,0.3-0.8,0.7-1.1,1c-3.1,3.1-2.4,6.1-1.2,8.3c0.4,0.6,0.8,1.1,1.3,1.5c0.9,0.7,2,1,3.4,1c0.1,0,0.3,0,0.4,0     c3.2-0.2,6.7-2.3,7.5-2.8c2.8-1.7,7.3-4.4,10.6-6.4c1-0.6,1.9-1.2,2.7-1.6c0.7-0.4,1.3-0.8,1.5-0.9c0.3-0.2,0.5-0.3,0.7-0.3h0.1     h0.2l10.5-0.8h0.1h0.1c11.5-2,16.8-6.8,18.8-9.3L185.7,124.5z"
   id="path6410"
   style="stroke:none;stroke-opacity:1;fill:#7b6c45;fill-opacity:1" />
		</g>
	</g>
</g>

</svg>