<?xml version="1.0" encoding="UTF-8" standalone="no"?>
<!-- Created with Inkscape (http://www.inkscape.org/) -->

<svg
   xmlns:dc="http://purl.org/dc/elements/1.1/"
   xmlns:cc="http://creativecommons.org/ns#"
   xmlns:rdf="http://www.w3.org/1999/02/22-rdf-syntax-ns#"
   xmlns:svg="http://www.w3.org/2000/svg"
   xmlns="http://www.w3.org/2000/svg"
   xmlns:sodipodi="http://sodipodi.sourceforge.net/DTD/sodipodi-0.dtd"
   xmlns:inkscape="http://www.inkscape.org/namespaces/inkscape"
   width="360"
   height="55"
   viewBox="0 0 359.99998 55.000001"
   id="svg2"
   version="1.1"
   inkscape:version="0.91 r13725"
   sodipodi:docname="logo-navbar.svg">
  <defs
     id="defs4" />
  <sodipodi:namedview
     id="base"
     pagecolor="#ffffff"
     bordercolor="#666666"
     borderopacity="1.0"
     inkscape:pageopacity="0.0"
     inkscape:pageshadow="2"
     inkscape:zoom="0.98901497"
     inkscape:cx="289.9805"
     inkscape:cy="143.53103"
     inkscape:document-units="px"
     inkscape:current-layer="layer1"
     showgrid="false"
     units="px"
     inkscape:window-width="1366"
     inkscape:window-height="706"
     inkscape:window-x="-8"
     inkscape:window-y="-8"
     inkscape:window-maximized="1" />
  <metadata
     id="metadata7">
    <rdf:RDF>
      <cc:Work
         rdf:about="">
        <dc:format>image/svg+xml</dc:format>
        <dc:type
           rdf:resource="http://purl.org/dc/dcmitype/StillImage" />
        <dc:title></dc:title>
      </cc:Work>
    </rdf:RDF>
  </metadata>
  <g
     inkscape:label="Layer 1"
     inkscape:groupmode="layer"
     id="layer1"
     transform="translate(0,-997.3622)">
    <text
       xml:space="preserve"
       style="font-style:normal;font-variant:normal;font-weight:normal;font-stretch:normal;font-size:40px;line-height:125%;font-family:Sanchez;-inkscape-font-specification:Sanchez;letter-spacing:0px;word-spacing:0px;fill:#000000;fill-opacity:1;stroke:none;stroke-width:1px;stroke-linecap:butt;stroke-linejoin:miter;stroke-opacity:1"
       x="3.8710442"
       y="1039.2278"
       id="text4136"
       sodipodi:linespacing="125%"
       inkscape:export-xdpi="90"
       inkscape:export-ydpi="90"><tspan
         sodipodi:role="line"
         id="tspan4138"
         x="3.8710442"
         y="1039.2278"><tspan
           style="fill:#ff9900;fill-opacity:1"
           id="tspan4156">free</tspan><tspan
           style="fill:#00ac71;fill-opacity:1"
           id="tspan4172">CodeCamp</tspan></tspan></text>
    <path
       id="path29"
       inkscape:connector-curvature="0"
       inkscape:export-filename="C:\Users\anon\Desktop\logo4.0.png"
       inkscape:export-ydpi="90"
       inkscape:export-xdpi="90"
       d="m 290.74969,1022.9636 c 0,-6.8398 2.34035,-12.9096 7.11163,-18.2849 1.73638,-1.993 3.12549,-2.9443 4.07673,-2.9443 0.34728,0 0.69455,0.091 0.95123,0.3473 0.25669,0.2567 0.43788,0.5134 0.43788,0.8606 0,0.5134 -0.60396,1.2986 -1.82698,2.5065 -4.93738,4.7713 -7.45891,10.6599 -7.45891,17.6809 0,7.7911 2.59703,14.1176 7.71559,18.9795 1.04183,0.9512 1.5552,1.7363 1.5552,2.3403 0,0.3473 -0.16609,0.6946 -0.43787,0.9512 -0.25669,0.2567 -0.60396,0.4379 -0.95124,0.4379 -1.20792,0 -2.85371,-1.3891 -5.02796,-4.1522 -4.15223,-5.1186 -6.1453,-11.3545 -6.1453,-18.7228 z"
       style="fill:#ff9900;fill-opacity:1" />
    <path
       id="path31"
       inkscape:connector-curvature="0"
       inkscape:export-filename="C:\Users\anon\Desktop\logo4.0.png"
       inkscape:export-ydpi="90"
       inkscape:export-xdpi="90"
       d="m 356.33975,1024.7 c 0,6.8398 -2.34035,12.9096 -7.11163,18.2849 -1.73638,1.993 -3.12549,2.9443 -4.07673,2.9443 -0.34727,0 -0.69455,-0.091 -0.95123,-0.3473 -0.25668,-0.2567 -0.43788,-0.604 -0.43788,-0.9512 0,-0.5134 0.60396,-1.2985 1.82698,-2.431 4.93738,-4.7712 7.45891,-10.6599 7.45891,-17.6809 0,-7.7911 -2.59703,-14.1176 -7.71559,-18.9794 -1.04183,-0.9513 -1.5552,-1.7364 -1.5552,-2.3404 0,-0.3473 0.1661,-0.6945 0.43788,-0.9512 0.25668,-0.2567 0.60395,-0.4379 0.95123,-0.4379 1.13242,0 2.85372,1.3891 5.02797,4.1522 4.06163,5.2092 6.14529,11.4602 6.14529,18.7379 z"
       style="fill:#ff9900;fill-opacity:1" />
    <g
       id="g33"
       transform="matrix(0.15099002,0,0,0.15099002,-48.434259,943.81461)"
       inkscape:export-filename="C:\Users\anon\Desktop\logo4.0.png"
       inkscape:export-ydpi="90"
       inkscape:export-xdpi="90"
       style="fill:#ff9900;fill-opacity:1">
      <line
         id="line35"
         x1="2368.6001"
         y1="636.70001"
         x2="2567.8"
         y2="636.70001"
         style="fill:#ff9900;fill-opacity:1" />
      <path
         id="path37"
         inkscape:connector-curvature="0"
         d="m 2567.2,648.7 -199.1,0 c -6.3,0 -12.1,-5.2 -12.1,-12.1 0,-6.9 5.2,-12.1 12.1,-12.1 l 199.1,0 c 6.3,0 12.1,5.2 12.1,12.1 -0.1,7 -5.2,12.1 -12.1,12.1 z"
         style="fill:#ff9900;fill-opacity:1" />
    </g>
    <path
       id="path3081"
       inkscape:connector-curvature="0"
       inkscape:export-filename="C:\Users\anon\Desktop\logo4.0.png"
       inkscape:export-ydpi="90"
       inkscape:export-xdpi="90"
       d="m 333.41947,1015.6708 c -0.48317,-1.6307 -1.25322,-3.1708 -2.43094,-4.3787 -0.31709,-0.3171 -0.64926,-0.6191 -0.98144,-0.9211 -0.25668,-0.2415 -0.90594,-0.619 -1.04183,-0.9361 0.69456,1.6156 1.37401,3.2916 0.86064,5.0733 -0.24158,0.8002 -1.11732,2.7329 -2.27995,2.2346 -1.08712,-0.468 -0.96633,-2.7631 -1.05692,-3.6841 -0.22649,-2.28 -0.73986,-4.5448 -1.94778,-6.5077 -0.66435,-1.072 -1.52499,-2.0233 -2.61212,-2.6725 -1.43441,-0.8456 -2.91411,-1.4193 -4.5448,-0.8003 0.36238,-0.1359 1.29851,0.9513 1.4797,1.1627 0.57376,0.6794 1.04183,1.4797 1.29851,2.3252 0.51337,1.7213 0.0604,3.6993 -0.54356,5.345 -1.25322,3.4124 -3.33688,6.4775 -4.33342,9.9805 -0.34727,1.223 -0.58885,2.4762 -0.64925,3.7445 -0.21139,4.0013 1.87228,7.6703 5.16386,9.905 0.73985,0.5133 2.06856,1.1475 3.0198,0.8153 -2.76312,-1.4797 -3.68416,-2.6876 -4.10693,-4.424 -0.99654,-4.0314 2.77822,-6.5982 4.40891,-9.7841 0.43787,-0.8456 0.75495,-1.7817 0.63416,-2.7481 -0.0453,-0.3623 -0.45298,-2.1289 -0.99654,-2.0383 1.6458,-0.2567 2.71782,0.8304 3.27648,2.2497 0.58887,1.5099 0.95124,3.05 0.67946,4.6505 -0.0906,0.5285 -0.48317,2.2045 0.28688,2.3102 1.07203,0.151 1.97797,-1.2683 1.76658,-2.6273 -0.10569,-0.6341 -0.22649,-1.6004 -0.22649,-1.6004 1.13243,1.3891 1.6458,2.7933 1.81189,4.3183 0.30198,2.7329 -0.87574,6.3415 -3.0651,8.5762 0.92105,-0.9361 2.09877,-1.5854 2.9896,-2.597 0.90594,-1.0268 1.60049,-2.2045 2.14406,-3.4728 1.22302,-2.8084 1.93267,-5.9792 1.72129,-9.0443 -0.0755,-1.4646 -0.28688,-3.0047 -0.72475,-4.4542 l 0,0 z"
       style="fill:#ff9900;fill-opacity:1" />
  </g>
</svg>
